<svg id="Capa_1" enable-background="new 0 0 512 512" height="512" viewBox="0 0 512 512" width="512" xmlns="http://www.w3.org/2000/svg"><g><g><g><g><g><path d="m256 451.249c-107.661 0-195.25-87.589-195.25-195.249s87.589-195.249 195.25-195.249 195.249 87.589 195.249 195.249-87.589 195.249-195.249 195.249zm0-375.045c-99.14 0-179.797 80.656-179.797 179.796s80.657 179.796 179.797 179.796 179.796-80.656 179.796-179.796-80.657-179.796-179.796-179.796z" fill="#fff1e2"/></g></g><g><g><path d="m256 401.745c-80.364 0-145.745-65.381-145.745-145.745s65.38-145.745 145.745-145.745 145.745 65.381 145.745 145.745-65.381 145.745-145.745 145.745zm0-276.037c-71.844 0-130.293 58.449-130.293 130.292s58.448 130.292 130.293 130.292 130.292-58.448 130.292-130.292-58.448-130.292-130.292-130.292z" fill="#fff1e2"/></g></g><g><path d="m256 497.52c-64.512 0-125.163-25.122-170.78-70.739s-70.74-106.269-70.74-170.781 25.123-125.163 70.74-170.78 106.267-70.74 170.78-70.74 125.163 25.122 170.78 70.739 70.739 106.269 70.739 170.781-25.123 125.163-70.739 170.78-106.268 70.74-170.78 70.74zm0-467.587c-124.653 0-226.067 101.413-226.067 226.067s101.414 226.067 226.067 226.067 226.066-101.413 226.066-226.067-101.414-226.067-226.066-226.067z" fill="#fff1e2"/></g></g></g><g><g><g><g><path d="m249.798 366.065c0 6.799 5.532 12.321 12.331 12.321h68.466c-15.453 76.223-82.847 133.604-163.634 133.604-60.523 0-113.526-32.203-142.814-80.416h87.782c13.774 0 24.982-11.198 24.982-24.972 0-6.665-2.606-12.939-7.314-17.657-4.718-4.718-10.992-7.314-17.668-7.314h-8.994c-14.361 0-26.053-11.682-26.053-26.033 0-6.943 2.709-13.485 7.623-18.409 4.924-4.935 11.476-7.644 18.43-7.644h86.535c13.846 0 25.106-11.26 25.106-25.105 0-6.696-2.617-13.001-7.355-17.76-4.739-4.729-11.054-7.345-17.75-7.345h-53.714c-12.846 0-23.293-10.436-23.293-23.272 0-6.222 2.421-12.074 6.82-16.473s10.25-6.83 16.473-6.83c9.405 0 18.255-3.657 24.899-10.302 6.655-6.655 10.322-15.504 10.322-24.92 0-5.635-.979-11.126-2.915-16.318-.443-.999-.865-2.06-1.277-3.142h.175c92.212 0 166.961 74.75 166.961 166.961 0 2.915-.072 5.81-.227 8.695h-71.567c-6.798-.001-12.33 5.531-12.33 12.331z" fill="#6d81d5"/><path d="m285.916 378.385h44.679c-15.453 76.224-82.847 133.615-163.634 133.615-7.572 0-15.03-.505-22.334-1.483 70.629-9.447 127.278-63.048 141.289-132.132z" fill="#5169cd"/><path d="m333.922 345.028c0 2.915-.072 5.821-.227 8.705h-44.679c.154-2.884.227-5.79.227-8.705 0-75.904-50.654-139.991-120.016-160.265-.34-1.195-.731-2.38-1.164-3.544-.443-.999-.865-2.06-1.277-3.142h.175c92.212 0 166.961 74.74 166.961 166.951z" fill="#5169cd"/><path d="m242.069 366.061c0 11.077 8.979 20.056 20.056 20.056h66.682c3.256-12.842 5.018-26.276 5.098-40.112h-71.78c-11.077 0-20.056 8.979-20.056 20.056z" fill="#27e19d"/><path d="m289.226 346.005c-.08 13.836-1.843 27.271-5.1 40.112h44.677c3.256-12.842 5.019-26.276 5.099-40.112z" fill="#26d192"/><path d="m222.301 304.443c0 18.13-14.701 32.831-32.831 32.831h-86.535c-5.053 0-9.636 2.045-12.957 5.366-3.308 3.32-5.366 7.892-5.366 12.957 0 10.118 8.205 18.31 18.322 18.31h8.999c9.023 0 17.204 3.657 23.122 9.576 5.919 5.919 9.576 14.088 9.576 23.122 0 18.058-14.641 32.699-32.699 32.699h-82.792c-18.383-26.816-29.138-59.286-29.138-94.271 0-92.213 74.745-166.959 166.959-166.959 2.767 0 5.522.072 8.253.204 2.262 5.991 3.489 12.488 3.489 19.261 0 11.862-4.812 22.605-12.584 30.377s-18.503 12.572-30.365 12.572c-4.307 0-8.193 1.744-11.008 4.56-2.815 2.815-4.559 6.713-4.559 11.008 0 8.59 6.966 15.555 15.567 15.555h53.716c9.059 0 17.276 3.681 23.219 9.612 5.93 5.944 9.612 14.161 9.612 23.22z" fill="#27e19d"/><g fill="#26d192"><path d="m178.702 197.541c0 11.862-4.812 22.605-12.584 30.377s-18.503 12.572-30.365 12.572c-4.307 0-8.193 1.744-11.008 4.56-2.815 2.815-4.559 6.713-4.559 11.008 0 8.59 6.966 15.555 15.567 15.555h-31.977c-8.602 0-15.567-6.966-15.567-15.555 0-4.295 1.744-8.193 4.56-11.008 2.815-2.815 6.701-4.56 11.008-4.56 11.862 0 22.593-4.8 30.365-12.572s12.584-18.515 12.584-30.377c0-6.244-1.046-12.259-2.984-17.853 7.591-1.071 15.339-1.612 23.219-1.612 2.767 0 5.522.072 8.253.204 2.261 5.991 3.488 12.487 3.488 19.261z"/><path d="m222.301 304.443c0 18.13-14.701 32.831-32.831 32.831h-31.977c18.13 0 32.831-14.701 32.831-32.831 0-9.059-3.681-17.276-9.612-23.219-5.943-5.931-14.16-9.612-23.219-9.612h31.977c9.059 0 17.276 3.681 23.219 9.612 5.93 5.943 9.612 14.16 9.612 23.219z"/><path d="m144.632 406.606c0 18.058-14.641 32.699-32.699 32.699h-31.977c18.058 0 32.699-14.641 32.699-32.699 0-9.035-3.657-17.204-9.576-23.122-5.919-5.919-14.1-9.576-23.123-9.576h-8.999c-10.118 0-18.322-8.193-18.322-18.31 0-5.065 2.057-9.636 5.366-12.957 3.32-3.32 7.904-5.366 12.957-5.366h31.977c-5.053 0-9.636 2.045-12.957 5.366-3.308 3.32-5.366 7.892-5.366 12.957 0 10.118 8.205 18.31 18.322 18.31h8.999c9.023 0 17.204 3.657 23.122 9.576 5.92 5.918 9.577 14.087 9.577 23.122z"/></g></g><g><path d="m227.744 462.132h-21.754c-12.607 0-22.827-10.22-22.827-22.827 0-12.607 10.22-22.827 22.827-22.827h21.754c12.607 0 22.827 10.22 22.827 22.827 0 12.606-10.22 22.827-22.827 22.827z" fill="#27e19d"/><path d="m250.572 439.304c0 6.304-2.55 12.006-6.689 16.133-4.138 4.138-9.841 6.689-16.145 6.689h-21.751c-1.107 0-2.189-.072-3.248-.241 4.993-.71 9.468-3.032 12.873-6.448 4.139-4.126 6.689-9.829 6.689-16.133 0-11.501-8.506-21.005-19.562-22.581 1.059-.168 2.141-.241 3.248-.241h21.751c12.608.001 22.834 10.215 22.834 22.822z" fill="#26d192"/></g><g><path d="m82.194 296.76h-8.57c-4.268 0-7.726-3.459-7.726-7.726s3.459-7.726 7.726-7.726h8.57c4.268 0 7.726 3.459 7.726 7.726s-3.459 7.726-7.726 7.726z" fill="#20c682"/></g><g><path d="m45.577 330.477h-8.57c-4.268 0-7.726-3.459-7.726-7.726s3.459-7.726 7.726-7.726h8.57c4.268 0 7.726 3.459 7.726 7.726s-3.458 7.726-7.726 7.726z" fill="#18b773"/></g><g><path d="m73.623 411.283h-8.571c-4.268 0-7.726-3.459-7.726-7.726s3.459-7.726 7.726-7.726h8.571c4.268 0 7.726 3.459 7.726 7.726.001 4.267-3.458 7.726-7.726 7.726z" fill="#20c682"/></g></g></g><g><g><g><g><g><g><circle cx="358.262" cy="153.733" fill="#ffd496" r="153.733"/><path d="m511.998 153.73c0 84.904-68.832 153.736-153.736 153.736-4.41 0-8.783-.19-13.093-.552 78.774-6.646 140.625-72.689 140.625-153.184 0-80.494-61.851-146.529-140.625-153.175 4.31-.362 8.683-.552 13.093-.552 84.904 0 153.736 68.823 153.736 153.727z" fill="#fcc16d"/><circle cx="358.262" cy="153.733" fill="#fc9744" r="120.573"/><path d="m478.833 153.731c0 66.59-53.981 120.58-120.572 120.58-5.47 0-10.854-.368-16.128-1.07 58.963-7.884 104.435-58.39 104.435-119.51s-45.472-111.617-104.435-119.501c5.273-.702 10.658-1.07 16.128-1.07 66.591-.001 120.572 53.98 120.572 120.571z" fill="#fb8627"/><circle cx="358.262" cy="153.733" fill="#fcb44d" r="80.905"/><path d="m439.17 153.731c0 44.682-36.227 80.909-80.909 80.909-11.895 0-23.194-2.565-33.365-7.186 3.799.604 7.702.91 11.667.91 41.216 0 74.624-33.417 74.624-74.633s-33.409-74.624-74.624-74.624c-3.974 0-7.886.315-11.693.91 10.179-4.613 21.488-7.186 33.391-7.186 44.683 0 80.909 36.218 80.909 80.9z" fill="#fca62f"/></g></g></g></g></g><path d="m391.865 135.319c0-9.84-5.702-18.37-13.974-22.469v-8.163c0-4.267-3.459-7.726-7.726-7.726s-7.726 3.459-7.726 7.726v5.568h-6.126v-5.568c0-4.267-3.459-7.726-7.726-7.726s-7.726 3.459-7.726 7.726v5.568h-2.909c-4.268 0-7.726 3.459-7.726 7.726v69.351c0 4.267 3.459 7.726 7.726 7.726h2.909v5.529c0 4.267 3.459 7.726 7.726 7.726s7.726-3.459 7.726-7.726v-5.529h6.126v5.529c0 4.267 3.459 7.726 7.726 7.726s7.726-3.459 7.726-7.726v-8.124c8.271-4.099 13.974-12.629 13.974-22.469 0-6.723-2.666-12.832-6.99-17.338 4.324-4.505 6.99-10.614 6.99-17.337zm-15.453 34.676c0 5.3-4.311 9.611-9.611 9.611h-21.125v-19.223h21.125c5.3 0 9.611 4.312 9.611 9.612zm-30.735-25.064v-19.223h21.125c5.3 0 9.611 4.311 9.611 9.611s-4.311 9.612-9.611 9.612z" fill="#ea9024"/></g></g><g><circle cx="152.328" cy="102.215" fill="#23f1a8" r="23.75"/><path d="m176.079 102.211c0 13.121-10.637 23.751-23.751 23.751-4.791 0-9.257-1.423-12.994-3.871 10.389-.665 18.62-9.314 18.62-19.88s-8.231-19.214-18.627-19.873c3.737-2.449 8.202-3.871 13.001-3.871 13.114.001 23.751 10.63 23.751 23.744z" fill="#26d192"/></g><g><circle cx="388.583" cy="454.621" fill="#fcb44d" r="23.75"/><path d="m412.335 454.618c0 13.121-10.637 23.751-23.751 23.751-4.791 0-9.257-1.423-12.994-3.871 10.389-.665 18.62-9.314 18.62-19.88s-8.231-19.214-18.627-19.873c3.737-2.449 8.202-3.871 13.001-3.871 13.114 0 23.751 10.63 23.751 23.744z" fill="#fca62f"/></g><g><circle cx="484.639" cy="328.193" fill="#23f1a8" r="23.75"/><path d="m508.39 328.19c0 13.121-10.637 23.751-23.751 23.751-4.791 0-9.257-1.422-12.994-3.871 10.389-.665 18.62-9.314 18.62-19.88s-8.231-19.214-18.627-19.873c3.737-2.449 8.202-3.871 13.001-3.871 13.114 0 23.751 10.63 23.751 23.744z" fill="#26d192"/></g><g><circle cx="45.577" cy="138.001" fill="#fb4a59" r="23.75"/><path d="m69.328 137.998c0 13.121-10.637 23.751-23.751 23.751-4.791 0-9.257-1.423-12.994-3.871 10.389-.665 18.62-9.314 18.62-19.88s-8.231-19.214-18.627-19.873c3.737-2.449 8.202-3.871 13.001-3.871 13.114 0 23.751 10.63 23.751 23.744z" fill="#f82f40"/></g></g></svg>