<svg id="Capa_1" enable-background="new 0 0 512 512" height="512" viewBox="0 0 512 512" width="512" xmlns="http://www.w3.org/2000/svg"><g><path d="m30 181v31h452v-31c0-16.5 13.5-30 30-30h-512c16.5 0 30 13.5 30 30z" fill="#fff"/><path d="m45 422h90c-8.276 0-15-6.724-15-15v-150c0-8.276 6.724-15 15-15h-90c8.276 0 15 6.724 15 15v150c0 8.276-6.724 15-15 15z" fill="#fff"/><path d="m482 452h-452v30h-30v30h512v-30h-30z" fill="#fff"/><path d="m377 422h90c-8.276 0-15-6.724-15-15v-150c0-8.276 6.724-15 15-15h-90c8.276 0 15 6.724 15 15v150c0 8.276-6.724 15-15 15z" fill="#fff"/><path d="m256 377c-8.276 0-15-6.724-15-15h-30c0 19.53 12.578 36.024 30 42.237v17.763h30v-17.763c17.422-6.212 30-22.707 30-42.237 0-24.814-20.186-45-45-45-8.276 0-15-6.724-15-15s6.724-15 15-15 15 6.724 15 15h30c0-19.53-12.578-36.024-30-42.237v-17.763h-30v17.763c-17.422 6.212-30 22.707-30 42.237 0 24.814 20.186 45 45 45 8.276 0 15 6.724 15 15s-6.724 15-15 15z" fill="#fff"/><path d="m0 64.267v56.733h512v-56.733l-256-64.267zm271 11.733h-30v-30h30z" fill="#fff"/></g></svg>